<svg xmlns="http://www.w3.org/2000/svg" xmlns:xlink="http://www.w3.org/1999/xlink" id="Layer_1" x="0px" y="0px" viewBox="0 0 2125.5 704.9" style="enable-background:new 0 0 2125.5 704.9;" xml:space="preserve"><style type="text/css">	.st0{fill:#1BA33F;}	.st1{fill:#757575;}</style><g>	<path class="st0" d="M233.6,101.1c13,0,25.6,0,38.8,0c0,12.2,0,24.2,0,37.6c4.9-5.8,8.8-10.6,13-15.2  c14.9-16.2,33.8-24.9,55.4-27.6c18-2.3,35.4-0.5,52.3,6.6c14.9,6.2,24.8,16.9,30.5,31.7c0.4,1.1,0.9,2.1,1.6,3.7  c1.2-1.6,2.2-2.8,3.1-4.1c22.1-30.3,52.5-41.1,88.9-38.2c12.7,1,25,3.4,36.5,9c21.3,10.5,31.9,28.3,34.6,51.3  c0.9,7.2,0.9,14.6,0.9,21.9c0.1,56.8,0,113.6,0,170.3c0,2,0,3.9,0,6.2c-13.9,0-27.5,0-41.8,0c0-1.8,0-3.7,0-5.6  c0-54.1,0.1-108.2-0.1-162.3c0-7.4-0.8-15-2.3-22.3c-3.8-17.9-15.9-28.8-34.2-31.4c-19.1-2.6-37.6-0.8-53.9,10.6  c-15.1,10.6-22.9,25.7-24.3,43.8c-1,12.4-0.7,25-0.7,37.4c-0.1,41,0,81.9,0,122.9c0,2.2,0,4.3,0,6.8c-13.8,0-27.4,0-41.4,0  c0-2.1,0-4,0-6c0-52.3,0.2-104.6-0.2-156.8c-0.1-10.2-1.3-20.6-3.9-30.5c-4.7-18.2-18.4-27.8-37-29.3  c-41.5-3.2-67.3,26.2-73.2,54.8c-0.9,4.4-1.4,8.9-1.5,13.3c-0.1,49.4-0.1,98.9-0.1,148.4c0,2,0,3.9,0,6.2c-13.8,0-27.2,0-41.1,0  C233.6,270,233.6,185.8,233.6,101.1z"></path>	<path class="st0" d="M1237.8,322c0,9.9,0.1,19.6-0.1,29.4c0,1.1-0.9,2.5-1.9,3.1c-10.7,6-39.5,8.8-51.5-1.8  c-7-6.1-10-13.8-11.1-22.6c-0.3-2.6-0.6-5.2-1-9.4c-4.6,4.9-8.1,9.1-12.1,12.8c-15.9,14.5-35.1,21.8-56,24.8  c-19.8,2.9-39.4,2.1-58.7-3.8c-28.4-8.6-45.7-31.8-46.1-61.6c-0.2-14.3,1.1-28.2,8.3-40.9c10.9-19,28.2-29.5,48.8-34  c23.6-5.3,47.6-8.9,71.4-13.3c11.8-2.1,23.6-3.9,33.7-11.2c5.6-4.1,8.3-9.7,8.8-16.6c1-15.9-3.3-29.4-17.9-37.8  c-8.7-5-18.4-6.7-28.2-7.2c-14.3-0.8-28.5-0.1-42.4,4.5c-18.8,6.2-28.7,17.9-30.6,37.5c-0.2,1.8-0.5,3.6-0.9,5.6c-13.6,0-27,0-41,0  c-0.1-11.6,2.1-22.7,6.6-33.3c10.9-25.4,31.3-39.6,57.2-46.1c30.7-7.7,61.7-7.6,92.2,0.8c22.6,6.2,38.8,20.3,44.1,44.1  c1.7,7.7,2.1,15.8,2.1,23.7c0.2,41,0,81.9,0.2,122.9c0,7.6,0.5,15.3,1.5,22.9c0.8,6.6,4.2,9.2,10.9,9  C1228.3,323.5,1232.6,322.6,1237.8,322z M1169.9,224.9c-7.6,2.5-14.8,5.7-22.4,7.3c-11.4,2.4-23,3.4-34.4,5.6  c-14.2,2.7-28.5,4.9-42.2,9.2c-14.8,4.7-24.7,15.1-27.3,31.3c-3.3,20.3,6.2,37,25.9,42.3c25.3,6.8,49.9,4.2,72.6-9.4  c15.3-9.1,26-22.5,27.5-40.6C1170.9,255.2,1169.9,239.7,1169.9,224.9z"></path>	<path class="st0" d="M1712.1,179.6c-13.9,0-27.1,0-41,0c-0.1-11.7,2.1-22.8,6.6-33.4c10.9-25.4,31.3-39.6,57.2-46.1  c30.7-7.7,61.7-7.6,92.2,0.8c22.6,6.2,38.8,20.3,44.1,44.1c1.7,7.7,2.1,15.8,2.1,23.7c0.2,41,0,81.9,0.2,122.9  c0,7.6,0.5,15.3,1.5,22.9c0.8,6.6,4.2,9,10.9,9.1c2.1,0,4.3-0.2,6.4-0.5c2.1-0.3,4.2-0.9,7.3-1.7c0,4.1,0,7.8,0,11.5  c0,5.8,0.1,11.7-0.1,17.5c-0.1,1.4-0.8,3.4-1.9,4c-10.7,6.1-39.5,8.8-51.5-1.7c-7-6.1-10-13.8-11.1-22.6c-0.3-2.6-0.6-5.2-1-9.4  c-4.6,4.9-8.1,9.1-12.1,12.8c-15.9,14.5-35.1,21.8-56,24.9c-19.8,2.9-39.4,2.1-58.7-3.7c-28.4-8.6-45.7-31.8-46.1-61.6  c-0.2-14.3,1.1-28.2,8.3-40.9c10.9-19,28.2-29.5,48.8-34.1c23.6-5.3,47.6-8.9,71.4-13.3c11.8-2.1,23.6-3.9,33.7-11.2  c5.6-4.1,8.3-9.7,8.8-16.6c1-15.9-3.3-29.4-17.9-37.8c-8.7-5-18.4-6.7-28.2-7.2c-14.3-0.8-28.5-0.1-42.4,4.5  c-18.8,6.2-28.7,17.9-30.6,37.5C1712.7,175.7,1712.4,177.5,1712.1,179.6z M1831.8,224.1c-7.1,2.5-13.6,5.6-20.4,7.2  c-10.7,2.4-21.6,3.8-32.4,5.5c-15.7,2.4-31.7,3.6-46.7,9.6c-19.5,7.8-28.5,21.3-27.6,42.4c0.6,15,10.5,27.6,25,31.7  c20.5,5.8,40.9,5,60.7-2.3c21.7-8,38.1-22.3,41.1-46.2C1833.4,256.3,1831.8,240.1,1831.8,224.1z"></path>	<path class="st0" d="M1324.2,100.9c0-14.3-0.1-27.8,0-41.2c0.4-31,16.7-51,47-57.4c15.3-3.2,30.7-3.1,46,0.7  c1.3,0.3,2.5,0.8,3.8,1.2c0,11.9,0,23.7,0,34.7c-8.7-0.7-17.3-1.6-25.9-2c-3.6-0.2-7.3,0.4-10.8,1.3c-11.9,2.9-17.6,9.4-18.1,21.8  c-0.5,13.4-0.1,26.8-0.1,40.7c16,0,31.9,0,48.3,0c0,12.4,0,24.4,0,36.8c-16.2,0-32.1,0-48.6,0c0,72.4,0,144.4,0,216.8  c-14,0-27.4,0-41.4,0c0-71.9,0-143.9,0-216.4c-14.4,0-28.3,0-42.7,0c0-12.5,0-24.5,0-37C1295.6,100.9,1309.5,100.9,1324.2,100.9z"></path>	<path class="st0" d="M857.5,101.1c0,17.6,0,34.9,0,52.3c0.4,0.3,0.8,0.7,1.2,1c18.9-38.9,47.9-61.7,93-59.4c0,14.4,0,28.8,0,43.1  c-9.3,1.2-18.6,2-27.7,3.7c-31.7,6-53.5,27.1-59.4,58.8c-2.7,14.5-4,29.3-4.2,44c-0.6,34.5-0.2,68.9-0.2,103.4c0,2,0,3.9,0,6.2  c-14,0-27.6,0-41.5,0c0-84.3,0-168.6,0-253.2C831.6,101.1,844.3,101.1,857.5,101.1z"></path>	<path class="st0" d="M1521.9,354.5c-14.3,0-27.8,0-41.5,0c0-84.5,0-168.8,0-253.4c12.8,0,25.4,0,38.7,0c0,17.5,0,34.9,0,52.4  c0.4,0.2,0.8,0.4,1.3,0.6c12.8-24.2,28.6-45.2,55.9-54.2c12-3.9,24.3-5.3,37.2-4.9c0,14.7,0,29.1,0,43.2c-10.3,1.4-20.4,2-30.3,4.2  c-31.6,7-50.3,27.5-56.8,58.5c-3,14.4-4,29.3-4.3,44c-0.6,34.5-0.2,68.9-0.2,103.4C1521.9,350.2,1521.9,352.1,1521.9,354.5z"></path>	<path class="st1" d="M774.1,700.7c-7.5,0-14,0-20.8,0c0-58,0-115.8,0-174.3c7.3,0,14.6-0.3,21.8,0.2c1.7,0.1,3.5,2.7,4.6,4.5  c22.8,35,45.5,70.1,68.3,105.2c6,9.3,12.2,18.6,18.3,27.9c0.8,1.2,1.7,2.2,2.6,3.4c0.5-0.1,1-0.2,1.5-0.3c0-1.8,0-3.7,0-5.5  c0-43.1,0.1-86.3-0.1-129.4c0-4.7,1.1-6.6,6-6.1c4.9,0.4,9.9,0.1,15.1,0.1c0,58.3,0,116,0,174.4c-7.7,0-15.3,0.2-22.8-0.2  c-1.4-0.1-3-2.3-4-3.9c-21.6-33-43.1-66.1-64.7-99.2c-7.4-11.4-14.9-22.8-22.4-34.1c-0.7-1-1.5-1.9-3.3-2.6  C774.1,607.3,774.1,653.8,774.1,700.7z"></path>	<path class="st1" d="M1679.8,700.6c-4.5,0-9,0-13.8,0c-2-6.9-4-13.8-6.2-21.5c-1.5,1.3-2.6,2.2-3.5,3.2  c-17.1,18.8-39,24.2-63.4,21.8c-41.6-4.1-70.1-40.1-72.4-80.6c-1.1-19.6,1.8-38.5,10.4-56.1c12.2-25.2,32.2-40.7,60.3-44.2  c20.2-2.5,39.9-0.4,57.6,10.7c15.9,10,25.2,24.7,28.6,43c0.1,0.6,0,1.3-0.1,2.6c-6.5,0-12.9,0.1-19.4-0.1c-1,0-2.7-1.5-2.9-2.6  c-5.4-28.9-34.9-37-57.2-35.7c-28.6,1.8-47.8,23.4-53.3,53.2c-3.3,17.9-3.2,35.7,3.6,52.9c12,30.4,38.8,44.4,71,37.4  c25.5-5.6,43.3-30.1,40.3-56.3c-1.7,0-3.4,0-5.2,0c-14.8,0-29.6-0.2-44.5,0.1c-5,0.1-6.4-1.6-6-6.2c0.4-4.1,0.1-8.2,0.1-12.7  c2.1-0.1,3.7-0.2,5.3-0.2c22,0,44,0.1,65.9-0.1c3.5,0,5,0.6,5,4.6c-0.2,27.8-0.1,55.6-0.1,83.4  C1680.1,698.3,1679.9,699.3,1679.8,700.6z"></path>	<path class="st0" d="M725.8,354.5c-13.8,0-27.3,0-41,0c0-84.4,0-168.7,0-253.3c13.6,0,27.1,0,41,0  C725.8,185.4,725.8,269.7,725.8,354.5z"></path>	<path class="st1" d="M1026.4,704.8c-43.6-0.1-73.9-28.5-81.4-71.2c-4.1-23.2-1.7-45.8,8.9-67c15.7-31.5,45.6-46.5,80.4-43.9  c41.8,3.1,68.6,34.4,74.5,73.3c3.3,21.7,1.2,42.8-8.2,62.7C1086.3,688.9,1060,704.9,1026.4,704.8z M965.3,616.4  c0.5,4.2,0.9,11.7,2.5,19c5.4,23.5,16.9,42.4,41.9,48.8c29.8,7.6,58.1-3,70.9-33.2c7.4-17.6,8.8-36,5.7-54.7  c-1.9-11.6-5.6-22.5-12.6-32.1c-10.4-14.4-24.6-21.8-42.2-22.9c-21.9-1.4-40.2,5.6-52.9,24.3C969,579.8,965.9,596.1,965.3,616.4z"></path>	<path class="st1" d="M1399,704.8c-48.8,0.1-79.4-27.9-87.1-70.8c-4.2-23.4-1.8-46.1,8.9-67.5c15.7-31.4,45.6-46.4,80.4-43.8  c41.5,3.1,68.3,34.1,74.4,72.9c3.4,21.7,1.3,42.8-8,62.7C1452.9,689.4,1427.6,704.2,1399,704.8z M1393.1,686.4  c26.6,0.1,44.9-11.5,54.8-36c10.1-25,9.7-50.4-0.8-75.3c-6-14.3-16.2-24.8-30.9-30.3c-9.8-3.7-20.1-4.4-30.7-3.5  c-23.9,2.1-40.7,18.9-48.1,40.1c-5.4,15.6-6.5,31.7-4.1,48c2.2,15,7.4,28.8,17.8,40C1362.4,681.5,1376.7,686.7,1393.1,686.4z"></path>	<path class="st1" d="M2117.8,576.6c-7.1,0-13.8,0-20.5,0c-1.1-4.1-1.9-7.9-3.1-11.7c-3.5-10.8-11.2-17.5-21.7-20.8  c-14-4.4-28.2-4.3-42,1c-13.3,5.1-20,19.2-16.2,33c1.8,6.3,6.3,10.6,11.8,12.6c11.2,4.1,22.7,7,34.1,10.3  c12.2,3.6,24.8,6.4,36.6,11c15.7,6.1,26.3,17.3,28.3,34.8c2.1,18.4-4.2,33.4-19.4,44.2c-17.6,12.5-37.7,14.9-58.5,13.2  c-15.1-1.2-29.4-5.5-41.4-15.3c-14-11.3-20-26.3-20.2-44.8c6.4,0,12.6-0.1,18.6,0.2c0.9,0,2.5,2.1,2.6,3.2  c0.6,18.5,15.3,32.9,34.2,36.8c14.7,3,29.1,3,43.2-2.5c16.8-6.5,21.2-20.3,17.8-35.9c-1.4-6.4-6.1-11.2-11.7-13.5  c-10.4-4.2-21.2-7.4-32-10.5c-13-3.8-26.4-6.5-39.2-11c-13.4-4.7-24-13.3-27.1-28c-4.3-20,4.1-40.5,22.7-50.3  c24.9-13.2,50.3-13.7,75.7-2.2C2107.7,538.2,2118.2,556.9,2117.8,576.6z"></path>	<path class="st1" d="M575.6,620.9c0,26.7,0,53.1,0,79.7c-7.6,0-14.7,0-22.1,0c0-58,0-115.7,0-173.8c7.1,0,14.4,0,22,0  c0,24.8,0,49.5,0,74.7c31.2,0,61.9,0,93.3,0c0-24.9,0-49.8,0-75c7,0,13.3-0.1,19.6,0.1c1.1,0,2.1,1.7,3,2.8c0.3,0.4,0.1,1.3,0.1,2  c0,55.3,0,110.6,0,165.9c0,1-0.1,2-0.2,3.3c-7.3,0-14.5,0-22.3,0c0-26.6,0-53,0-79.6C637.6,620.9,606.9,620.9,575.6,620.9z"></path>	<path class="st1" d="M204.9,620.5c0,20.9,0,40.9,0,61.4c32.6,0,65,0,97.8,0c0,6.4,0,12.3,0,18.6c-39.8,0-79.7,0-120,0  c0-57.8,0-115.6,0-173.9c1.6-0.1,3.2-0.2,4.8-0.2c36.5,0,73,0.1,109.4-0.1c4.7,0,6.1,1.4,5.7,5.9c-0.4,4-0.1,8-0.1,12.7  c-32.6,0-64.9,0-97.6,0c0,19.3,0,37.8,0,56.9c30.2,0,60.1,0,90.4,0c0,6.4,0,12.2,0,18.7C265.4,620.5,235.4,620.5,204.9,620.5z"></path>	<path class="st1" d="M1846.4,601.9c15.3,0,30.2,0,45.2,0c15,0,29.9,0,45.3,0c0,6.3,0,12.2,0,18.7c-30.1,0-60.1,0-90.5,0  c0,20.7,0,40.8,0,61.4c32.5,0,64.9,0,97.7,0c0,6.4,0,12.3,0,18.6c-39.9,0-79.8,0-120,0c0-57.9,0-115.7,0-173.9  c1.7-0.1,3.3-0.2,4.9-0.2c36.5,0,73,0.1,109.4-0.1c4.3,0,6.1,0.9,5.7,5.5c-0.4,4.1-0.1,8.3-0.1,13.2c-32.6,0-65,0-97.6,0  C1846.4,564.3,1846.4,582.8,1846.4,601.9z"></path>	<path class="st1" d="M499.7,578.5c-6.8,0-13.2,0.2-19.7-0.2c-1.2-0.1-3.1-2-3.4-3.4c-6.5-26.3-31.2-35.1-53.6-33.7  c-30.6,1.9-47,22.8-52.7,49.3c-4.4,20.9-3,41.6,4.8,61.7c12.1,30.9,52.3,44.3,80.5,26.8c13.1-8.1,19.8-20.6,22.4-35.4  c0.4-2.4,0.8-4.8,1.2-7.5c7.4,0,14.5,0,21.7,0c-1.9,31-20.4,59.8-54.1,66.5c-20.7,4.1-41,3-60.1-7.1c-19-10.1-30.4-26.4-36.2-46.7  c-7.3-25.3-6.8-50.5,2.4-75.3c13.3-35.9,46-53.9,82.5-50.9c19.8,1.6,37.1,8.5,50.3,24C493.6,555.7,498,566.2,499.7,578.5z"></path>	<path class="st1" d="M58.3,545.1c-19.8,0-38.9,0-58.3,0c0-6.4,0-12.3,0-18.4c46.2,0,92.3,0,138.7,0c0,6,0,11.9,0,18.4  c-19.3,0-38.3,0-57.9,0c0,52.1,0,103.7,0,155.5c-7.6,0-14.7,0-22.5,0C58.3,648.9,58.3,597.3,58.3,545.1z"></path>	<path class="st1" d="M1183.1,682.1c31.4,0,62,0,92.8,0c0,6.4,0,12.3,0,18.5c-38.2,0-76.2,0-114.7,0c0-58,0-115.8,0-173.9  c7.2,0,14.3,0,21.9,0C1183.1,578.3,1183.1,629.8,1183.1,682.1z"></path>	<path class="st1" d="M1760.8,700.6c-7.1,0-14.2,0-21.7,0c0-57.9,0-115.8,0-173.9c7.2,0,14.3,0,21.7,0  C1760.8,584.6,1760.8,642.4,1760.8,700.6z"></path>	<path class="st0" d="M725.8,54.9c-12.9,0-25.3,0-37.8,0c-1,0-1.9-0.1-3.2-0.2c0-16.8,0-33.4,0-50.4c13.4,0,27,0,41,0  C725.8,20.9,725.8,37.6,725.8,54.9z"></path></g></svg>